<svg width="12" height="12" viewBox="0 0 12 12" fill="none" xmlns="http://www.w3.org/2000/svg">
<path fill-rule="evenodd" clip-rule="evenodd" d="M11.5001 5.29294L6.70706 0.49994C6.31656 0.109558 5.68356 0.109558 5.29306 0.49994L0.500062 5.29344C0.10968 5.68394 0.10968 6.31694 0.500062 6.70744L5.29306 11.4999C5.68356 11.8903 6.31656 11.8903 6.70706 11.4999L11.5001 6.70744C11.6877 6.51989 11.7931 6.26548 11.7931 6.00019C11.7931 5.7349 11.6877 5.48049 11.5001 5.29294ZM5.53406 3.20844C5.53406 2.9323 5.75792 2.70844 6.03406 2.70844C6.3102 2.70844 6.53406 2.9323 6.53406 3.20844V6.20844C6.53406 6.48458 6.3102 6.70844 6.03406 6.70844C5.75792 6.70844 5.53406 6.48458 5.53406 6.20844V3.20844ZM6.04556 8.96344H6.05956C6.25767 8.95995 6.44604 8.8769 6.58223 8.73299C6.71842 8.58909 6.79098 8.39644 6.78356 8.19844C6.76827 7.78891 6.43238 7.4645 6.02256 7.46344H6.00856C5.81046 7.46693 5.62209 7.54998 5.4859 7.69389C5.34971 7.83779 5.27714 8.03045 5.28456 8.22844C5.30037 8.63775 5.63596 8.96187 6.04556 8.96344Z" fill="#FF0000"/>
</svg>
